<svg xmlns="http://www.w3.org/2000/svg" viewBox="0 0 1080 1080"><circle cx="540" cy="540" r="521.8"/><path d="M629.6 417.9h56.6v277.8h-56.6V417.9Zm0-98.6H687V377h-57.4v-57.7ZM514.2 566.7h-13.5c-32.6 0-53.2 11.2-53.2 48v4.1c0 22.1 9 38.2 31.1 38.2s35.6-15.7 35.6-55.1v-35.2Zm55.1 76.1c0 18 0 43.1 1.1 52.9h-52.1c-1.1-6-3.7-17.2-3.7-21-10.9 18.4-30 25.5-54 25.5-48.4 0-67.5-37.1-67.5-79.9v-5.2c0-66 51-85.9 109.5-85.9h10.1v-39c0-23.2-3.7-36.7-26.2-36.7s-27.4 14.2-27.4 33.4v5.2h-55.9v-4.5c0-39.4 18-73.9 85.1-73.9s80.6 29.6 80.6 72.7v156.3h.4Z" style="fill:#fff"/></svg>